<svg xmlns="http://www.w3.org/2000/svg" width="2214.997" height="1013.725" viewBox="0 0 2214.997 1013.725">
  <g id="Layer_1-2" transform="translate(0.987 8.913)">
    <path id="Path_36919" data-name="Path 36919" d="M2045.953,970.072c0,24.114-22.219,43.653-49.616,43.653H592.006c-27.405,0-49.616-19.539-49.616-43.653V43.653C542.39,19.548,564.6,0,592.006,0H1996.328c27.405,0,49.616,19.548,49.616,43.653V970.072Z" transform="translate(-136.433 -8.913)" fill="#fff"/>
    <path id="Path_36920" data-name="Path 36920" d="M1820.754,889.94a22.7,22.7,0,0,1-22.7,22.7h-923.7a22.7,22.7,0,0,1-22.7-22.7h0a22.7,22.7,0,0,1,22.7-22.7h923.7a22.7,22.7,0,0,1,22.7,22.7Z" transform="translate(-107.731 -108.954)" fill="#a5c5e8"/>
    <g id="Group_34933" data-name="Group 34933" transform="translate(1128.598 121.137)">
      <g id="Group_34930" data-name="Group 34930" transform="translate(35.9 59.115)">
        <path id="Path_36921" data-name="Path 36921" d="M1333.38,215.855l43.173-10.695s9.9,7.115,1.414,17.679C1377.478,223.451,1333.38,215.855,1333.38,215.855Z" transform="translate(-1333.38 -205.16)" fill="#5786c5"/>
        <path id="Path_36922" data-name="Path 36922" d="M1333.38,215.855l43.173-10.695s9.9,7.115,1.414,17.679C1377.478,223.451,1333.38,215.855,1333.38,215.855Z" transform="translate(-1333.38 -205.16)" fill="none" stroke="#3a69ac" stroke-miterlimit="10" stroke-width="3"/>
      </g>
      <g id="Group_34931" data-name="Group 34931" transform="translate(30.522 11.656)">
        <path id="Path_36923" data-name="Path 36923" d="M1327.22,184.919l28.532-34.119s12.188-.1,11.577,13.436c-.035.786-40.108,20.691-40.108,20.691Z" transform="translate(-1327.22 -150.8)" fill="#5786c5"/>
        <path id="Path_36924" data-name="Path 36924" d="M1327.22,184.919l28.532-34.119s12.188-.1,11.577,13.436c-.035.786-40.108,20.691-40.108,20.691Z" transform="translate(-1327.22 -150.8)" fill="none" stroke="#3a69ac" stroke-miterlimit="10" stroke-width="3"/>
      </g>
      <g id="Group_34932" data-name="Group 34932">
        <path id="Path_36925" data-name="Path 36925" d="M1305.295,185.337l-13.035-42.527s6.557-10.276,17.575-2.375c.637.463-4.54,44.9-4.54,44.9Z" transform="translate(-1292.26 -137.449)" fill="#5786c5"/>
        <path id="Path_36926" data-name="Path 36926" d="M1305.295,185.337l-13.035-42.527s6.557-10.276,17.575-2.375c.637.463-4.54,44.9-4.54,44.9Z" transform="translate(-1292.26 -137.449)" fill="none" stroke="#3a69ac" stroke-miterlimit="10" stroke-width="3"/>
      </g>
    </g>
    <g id="Group_34937" data-name="Group 34937" transform="translate(1181.195 726.041)">
      <g id="Group_34934" data-name="Group 34934">
        <path id="Path_36927" data-name="Path 36927" d="M1394.512,842.8l-39.008,3.056s-7.561-7.6,1.327-15.54c.515-.463,37.69,12.485,37.69,12.485Z" transform="translate(-1352.505 -830.306)" fill="#5786c5"/>
        <path id="Path_36928" data-name="Path 36928" d="M1394.512,842.8l-39.008,3.056s-7.561-7.6,1.327-15.54c.515-.463,37.69,12.485,37.69,12.485Z" transform="translate(-1352.505 -830.306)" fill="none" stroke="#3a69ac" stroke-miterlimit="10" stroke-width="3"/>
      </g>
      <g id="Group_34935" data-name="Group 34935" transform="translate(5.033 34.14)">
        <path id="Path_36929" data-name="Path 36929" d="M1396.44,869.41l-29.684,25.5s-10.59-1.668-8.111-13.331C1358.794,880.908,1396.44,869.41,1396.44,869.41Z" transform="translate(-1358.269 -869.41)" fill="#5786c5"/>
        <path id="Path_36930" data-name="Path 36930" d="M1396.44,869.41l-29.684,25.5s-10.59-1.668-8.111-13.331C1358.794,880.908,1396.44,869.41,1396.44,869.41Z" transform="translate(-1358.269 -869.41)" fill="none" stroke="#3a69ac" stroke-miterlimit="10" stroke-width="3"/>
      </g>
      <g id="Group_34936" data-name="Group 34936" transform="translate(48.251 34.83)">
        <path id="Path_36931" data-name="Path 36931" d="M1418.2,870.2l5.178,38.781s-7.177,7.971-15.593-.471c-.489-.489,10.416-38.31,10.416-38.31Z" transform="translate(-1407.772 -870.2)" fill="#5786c5"/>
        <path id="Path_36932" data-name="Path 36932" d="M1418.2,870.2l5.178,38.781s-7.177,7.971-15.593-.471c-.489-.489,10.416-38.31,10.416-38.31Z" transform="translate(-1407.772 -870.2)" fill="none" stroke="#3a69ac" stroke-miterlimit="10" stroke-width="3"/>
      </g>
    </g>
    <text id="Sorry_page_not_found" data-name="Sorry, page not found" transform="translate(1060.674 878.135)" fill="#2861a4" font-size="34" font-family="Roboto-Medium, Roboto" font-weight="500"><tspan x="0" y="0">Sorr</tspan><tspan y="0" letter-spacing="-0.08em">y</tspan><tspan y="0">, page not found</tspan></text>
    <path id="Path_36933" data-name="Path 36933" d="M1196.749,632.713h-5.858l-2.436,14.929h-7.246l2.436-14.929h-8.085v-6.661h9.176l1.6-9.612h-8.041v-6.661h9.141l2.514-15.148h7.212l-2.47,15.148h5.858l2.514-15.148h7.246l-2.514,15.148h8.408v6.661h-9.5l-1.6,9.612h8.338v6.661h-9.429l-2.436,14.929h-7.246l2.436-14.929Zm-4.767-6.661h5.858l1.6-9.612h-5.858Z" transform="translate(-148.848 -74.348)" fill="#a5c5e8"/>
    <g id="Group_34938" data-name="Group 34938" transform="translate(767.502 135.124)">
      <path id="Path_36934" data-name="Path 36934" d="M1037.26,836.823a11.747,11.747,0,0,1-11.6-11.6V781.375H890.263a11.747,11.747,0,0,1-11.6-11.6V724.208q0-11.171,5.588-18.483l128.514-162.04c2.576-3.152,4.941-5.221,7.089-6.234a21.159,21.159,0,0,1,8.809-1.5h64.9a11.747,11.747,0,0,1,11.6,11.6V712.6h36.965a11.747,11.747,0,0,1,11.6,11.6v45.565a11.748,11.748,0,0,1-11.6,11.6h-36.965V825.22a11.747,11.747,0,0,1-11.6,11.6ZM1027.8,712.6v-79.09L965.049,712.6Z" transform="translate(-878.66 -202.023)" fill="#a5c5e8"/>
      <path id="Path_36935" data-name="Path 36935" d="M1417.468,381.04q32.229,0,55.448,9.455t38.467,25.362a102.265,102.265,0,0,1,22.778,37.184,159.244,159.244,0,0,1,8.809,44.482q.851,18.491.864,38.685t-.864,37.821a159.183,159.183,0,0,1-8.809,44.482,102.432,102.432,0,0,1-22.778,37.184q-15.257,15.911-38.467,25.362t-55.448,9.455q-32.242,0-55.448-9.455T1323.553,655.7a102.192,102.192,0,0,1-22.778-37.184,158.944,158.944,0,0,1-8.809-44.482q-.864-17.614-.855-37.821t.855-38.685a159.191,159.191,0,0,1,8.809-44.482,102.264,102.264,0,0,1,22.778-37.184q15.257-15.9,38.467-25.362t55.448-9.455Zm45.993,190.842q1.715-36.524,0-72.211a114.945,114.945,0,0,0-3.222-19.775,43.242,43.242,0,0,0-7.526-15.689,35.378,35.378,0,0,0-13.751-10.529q-8.6-3.876-21.486-3.868t-21.495,3.868a35.251,35.251,0,0,0-13.75,10.529A45.968,45.968,0,0,0,1374.5,479.9a84.216,84.216,0,0,0-3.012,19.775,603.907,603.907,0,0,0,0,72.211,91.97,91.97,0,0,0,2.794,19.775,41.186,41.186,0,0,0,7.735,15.689,37.061,37.061,0,0,0,13.969,10.529q8.591,3.863,21.495,3.867t21.486-3.867a37.2,37.2,0,0,0,13.969-10.529,41.373,41.373,0,0,0,7.735-15.689A92.978,92.978,0,0,0,1463.46,571.882Z" transform="translate(-931.017 -182.358)" fill="#a5c5e8"/>
      <path id="Path_36936" data-name="Path 36936" d="M1795.56,454.343a11.747,11.747,0,0,1-11.6-11.6V398.9H1648.563a11.747,11.747,0,0,1-11.6-11.6V341.727q0-11.171,5.588-18.483l128.514-162.039c2.575-3.152,4.942-5.221,7.089-6.234a21.16,21.16,0,0,1,8.809-1.5h64.9a11.747,11.747,0,0,1,11.6,11.6V330.124h36.965a11.747,11.747,0,0,1,11.6,11.6v45.565a11.747,11.747,0,0,1-11.6,11.6h-36.965V442.74a11.747,11.747,0,0,1-11.6,11.6ZM1786.1,330.125v-79.09l-62.756,79.09Z" transform="translate(-974.921 -153.47)" fill="#a5c5e8"/>
    </g>
    <g id="Group_34939" data-name="Group 34939" transform="translate(759.915 150.778)">
      <path id="Path_36937" data-name="Path 36937" d="M1028.57,799.863a11.748,11.748,0,0,1-11.6-11.6V744.415H881.573a11.747,11.747,0,0,1-11.6-11.6V687.247q0-11.171,5.588-18.483l128.514-162.039q3.864-4.728,7.089-6.234a21.158,21.158,0,0,1,8.809-1.5h64.9a11.747,11.747,0,0,1,11.6,11.6V675.644h36.965a11.747,11.747,0,0,1,11.6,11.6v45.565a11.747,11.747,0,0,1-11.6,11.6h-36.965V788.26a11.747,11.747,0,0,1-11.6,11.6h-56.3Zm-9.455-124.219V596.563l-62.755,79.082Z" transform="translate(-869.97 -212.985)" fill="none" stroke="#3a69ac" stroke-linecap="round" stroke-linejoin="round" stroke-width="3"/>
      <path id="Path_36938" data-name="Path 36938" d="M1373.928,398.96q32.242,0,55.448,9.455t38.467,25.362a102.262,102.262,0,0,1,22.778,37.184,159.248,159.248,0,0,1,8.809,44.482q.851,18.491.864,38.685t-.864,37.821a159.186,159.186,0,0,1-8.809,44.482,102.428,102.428,0,0,1-22.778,37.184q-15.27,15.911-38.467,25.362t-55.448,9.455q-32.242,0-55.448-9.455t-38.467-25.362a102.193,102.193,0,0,1-22.778-37.184,158.945,158.945,0,0,1-8.809-44.482q-.864-17.627-.856-37.821t.856-38.685a159.19,159.19,0,0,1,8.809-44.482,102.264,102.264,0,0,1,22.778-37.184q15.257-15.9,38.467-25.362t55.448-9.455ZM1419.921,589.8q1.715-36.524,0-72.211a114.971,114.971,0,0,0-3.221-19.775,43.251,43.251,0,0,0-7.526-15.689,35.38,35.38,0,0,0-13.751-10.529q-8.6-3.863-21.495-3.868t-21.495,3.868a35.249,35.249,0,0,0-13.75,10.529,45.961,45.961,0,0,0-7.735,15.689,84.2,84.2,0,0,0-3.012,19.775,603.8,603.8,0,0,0,0,72.211,91.877,91.877,0,0,0,2.794,19.775,41.121,41.121,0,0,0,7.735,15.689,37.059,37.059,0,0,0,13.969,10.529q8.591,3.863,21.495,3.868t21.495-3.868a37.285,37.285,0,0,0,13.969-10.529,41.373,41.373,0,0,0,7.735-15.689A92.986,92.986,0,0,0,1419.921,589.8Z" transform="translate(-917.904 -200.287)" fill="none" stroke="#3a69ac" stroke-linecap="round" stroke-linejoin="round" stroke-width="3"/>
      <path id="Path_36939" data-name="Path 36939" d="M1755.019,472.273a11.748,11.748,0,0,1-11.612-11.6V416.825H1608.013a11.747,11.747,0,0,1-11.6-11.6V359.657q0-11.171,5.587-18.483l128.514-162.04q3.864-4.728,7.089-6.234a21.16,21.16,0,0,1,8.809-1.5h64.9a11.747,11.747,0,0,1,11.6,11.6V348.054h36.965a11.747,11.747,0,0,1,11.6,11.6v45.565a11.747,11.747,0,0,1-11.6,11.6h-36.965V460.67a11.747,11.747,0,0,1-11.6,11.6h-56.3Zm-9.455-124.219v-79.09l-62.755,79.09Z" transform="translate(-962.187 -171.4)" fill="none" stroke="#3a69ac" stroke-linecap="round" stroke-linejoin="round" stroke-width="3"/>
    </g>
    <line id="Line_30" data-name="Line 30" x2="905.553" transform="translate(768.837 756.418)" fill="#fff" stroke="#3a69ac" stroke-linecap="round" stroke-linejoin="round" stroke-width="3"/>
    <g id="Group_34946" data-name="Group 34946" transform="translate(3 15.859)">
      <path id="Path_36940" data-name="Path 36940" d="M1068.073,833.57l-7.832,23.756-17.732-.48,5.858-19.783" transform="translate(-134.958 -120.538)" fill="#fff" stroke="#3a69ac" stroke-linecap="round" stroke-linejoin="round" stroke-width="3"/>
      <g id="Group_34945" data-name="Group 34945">
        <g id="Group_34940" data-name="Group 34940" transform="translate(925.965 318.741)">
          <path id="Path_36941" data-name="Path 36941" d="M1144.12,422.12l-10.782.9c2.619,22.019-6.732,38.284-19,49.9l11.882,18.71c21.337-28.2,17.889-69.513,17.889-69.513Z" transform="translate(-1070.041 -387.049)" fill="#fff" stroke="#3a69ac" stroke-linecap="round" stroke-linejoin="round" stroke-width="3"/>
          <path id="Path_36942" data-name="Path 36942" d="M1063.6,505.009l9.961,19.137c22.106-2.462,36.66-12.476,46.229-25.127l-11.882-18.71c-18.753,17.775-44.308,24.7-44.308,24.7Z" transform="translate(-1063.6 -394.436)" fill="#a5c5e8" stroke="#3a69ac" stroke-linecap="round" stroke-linejoin="round" stroke-width="3"/>
          <path id="Path_36943" data-name="Path 36943" d="M1145.626,421.849l-9.988-.175a5.793,5.793,0,0,1-1.152-.925c-.524-.559.567-2.558.567-2.558s-3.7-5.788-4.54-10.73-4.758-9.8-2.392-9.866,2.48,4.191,3.65,3.684c.585-.253.777-4.147.113-7.936s-2.182-7.491-.523-7.176c3.326.62,5.125,12.782,5.125,12.782s.245-3.92.227-8.023c-.018-4.4-.227-9,1.859-8.975,1.8.026,1.764,4.068,2.252,8.1a70.217,70.217,0,0,0,1.493,7.875s.891-13.3,2.34-11.926.4,13.2,1.248,13.2,1.895-8.277,3.091-7.6-.07,14.894-.07,14.894.454,8.338-2.75,12.205c0,0,1.423,2.549-.55,3.152Z" transform="translate(-1071.695 -381.95)" fill="#204283"/>
          <rect id="Rectangle_8267" data-name="Rectangle 8267" width="12.581" height="28.278" transform="matrix(0.848, -0.53, 0.53, 0.848, 39.548, 86.63)" fill="#a5c5e8" stroke="#3a69ac" stroke-linecap="round" stroke-linejoin="round" stroke-width="3"/>
        </g>
        <path id="Path_36944" data-name="Path 36944" d="M13.413,339.036,5.18,314.678c.244-.087,26.768-9.281,54.47-30.906,36.258-28.3,57.473-63.62,63.052-104.968,5.78-42.858,24.708-80.924,54.732-110.066a184.621,184.621,0,0,1,102.2-50.157c37.21-5.2,73.8,1.475,105.806,19.3,34.914,19.452,63.044,51.868,81.352,93.766,29.536,67.618,78.82,110.127,146.456,126.34,51.266,12.293,94.543,4.191,94.971,4.112l4.933,25.24c-1.947.384-48.367,9.211-104.872-4.095-33.395-7.866-63.41-21.861-89.2-41.592-32.181-24.62-57.7-58.163-75.851-99.7C412.217,70.981,352.4,34.374,283.2,44.056c-59.036,8.25-123.677,54.182-135.01,138.2-6.452,47.852-31.849,90.161-73.442,122.368-31.055,24.044-60.11,34.014-61.332,34.433Z" transform="translate(-3.277 -16.864)" fill="#3a69ac"/>
        <path id="Path_36945" data-name="Path 36945" d="M699.438,272.061S520.138,302.216,449.8,128.5s-276.751-65.9-317.854,34.73S3,304.853,3,304.853" transform="translate(-3 -19.366)" fill="none" stroke="#3a69ac" stroke-linecap="round" stroke-linejoin="round" stroke-width="6"/>
        <path id="Path_36946" data-name="Path 36946" d="M939.363,310.735A23.966,23.966,0,0,1,915.4,334.7H801.866A23.966,23.966,0,0,1,777.9,310.735h0a23.966,23.966,0,0,1,23.965-23.965H915.4a23.966,23.966,0,0,1,23.965,23.965Z" transform="translate(-101.368 -51.126)" fill="#fff" stroke="#3a69ac" stroke-linecap="round" stroke-linejoin="round" stroke-width="3"/>
        <path id="Path_36947" data-name="Path 36947" d="M908.671,317.366H805.912a21.684,21.684,0,0,1-21.119-16.806,21.7,21.7,0,0,0,19.1,31.989H906.654a21.7,21.7,0,0,0,21.7-21.7,21.387,21.387,0,0,0-.576-4.88,21.7,21.7,0,0,1-19.094,11.4Z" transform="translate(-101.914 -52.877)" fill="#a5c5e8"/>
        <path id="Path_36948" data-name="Path 36948" d="M1007.618,315.25a44.777,44.777,0,0,1-44.779,44.788h0A44.777,44.777,0,0,1,918.06,315.25V297.588A44.783,44.783,0,0,1,962.839,252.8h0a44.777,44.777,0,0,1,44.779,44.788Z" transform="translate(-119.16 -46.814)" fill="#fff" stroke="#3a69ac" stroke-linecap="round" stroke-linejoin="round" stroke-width="3"/>
        <path id="Path_36949" data-name="Path 36949" d="M976.833,337.882a39.645,39.645,0,0,1-39.646-39.646V282.6a39.453,39.453,0,0,1,2.942-14.99,39.614,39.614,0,0,0-17.47,32.871v15.636A39.649,39.649,0,0,0,999.018,331.1a39.464,39.464,0,0,1-22.176,6.775Z" transform="translate(-119.744 -48.694)" fill="#a5c5e8"/>
        <path id="Path_36950" data-name="Path 36950" d="M1020.523,217.41h89.567a50.487,50.487,0,0,1,50.463,50.463V336a50.487,50.487,0,0,1-50.463,50.463h-89.567A50.487,50.487,0,0,1,970.06,336V267.882a50.487,50.487,0,0,1,50.463-50.463Z" transform="translate(-125.761 -42.321)" fill="#fff" stroke="#3a69ac" stroke-linecap="round" stroke-linejoin="round" stroke-width="3"/>
        <path id="Path_36951" data-name="Path 36951" d="M1127.706,358.354H1044.46a46.9,46.9,0,0,1-46.9-46.9V248.139a46.872,46.872,0,0,1,3.265-17.2A46.879,46.879,0,0,0,975.2,272.733v63.314a46.9,46.9,0,0,0,46.9,46.9h83.246a46.9,46.9,0,0,0,43.635-29.7,46.707,46.707,0,0,1-21.276,5.107Z" transform="translate(-126.414 -44.039)" fill="#a5c5e8"/>
        <path id="Path_36952" data-name="Path 36952" d="M1189.206,179.119a58.869,58.869,0,0,0-21.032,3.719c-.1,0-.183-.009-.279-.009-4.1,0-8.041,2.549-11.682,7.211a19.068,19.068,0,0,0-6.094,10.363c-9.464,20.456-15.759,56.749-15.759,98.123,0,63.9,15.017,115.706,33.534,115.706a10.861,10.861,0,0,0,5.116-1.336,61.152,61.152,0,0,0,16.2,2.13c21.73,0,39.34-10.73,39.34-23.965V203.084c0-13.236-17.618-23.974-39.34-23.974Z" transform="translate(-146.618 -37.46)" fill="#fff" stroke="#3a69ac" stroke-linecap="round" stroke-linejoin="round" stroke-width="3"/>
        <path id="Path_36953" data-name="Path 36953" d="M1106.966,338.836a2.951,2.951,0,0,1-2.942,2.951h0a2.944,2.944,0,0,1-2.934-2.951V265.674a2.94,2.94,0,0,1,2.934-2.934h0a2.942,2.942,0,0,1,2.942,2.934v73.162Z" transform="translate(-142.394 -48.076)" fill="#a5c5e8"/>
        <path id="Path_36954" data-name="Path 36954" d="M1082.636,338.836a2.951,2.951,0,0,1-2.942,2.951h0a2.943,2.943,0,0,1-2.933-2.951V265.674a2.94,2.94,0,0,1,2.933-2.934h0a2.942,2.942,0,0,1,2.942,2.934v73.162Z" transform="translate(-139.306 -48.076)" fill="#a5c5e8"/>
        <path id="Path_36955" data-name="Path 36955" d="M1252.659,299.066c0,63.9-15.017,115.706-33.534,115.706s-33.534-51.8-33.534-115.706,15.017-115.706,33.534-115.706S1252.659,235.159,1252.659,299.066Z" transform="translate(-153.121 -37.999)" fill="#5786c5" stroke="#3a69ac" stroke-miterlimit="10" stroke-width="3"/>
        <path id="Path_36956" data-name="Path 36956" d="M1213.75,330.551a4.467,4.467,0,0,1-4.47,4.47h0a4.467,4.467,0,0,1-4.47-4.47V291.42a4.467,4.467,0,0,1,4.47-4.47h0a4.468,4.468,0,0,1,4.47,4.47Z" transform="translate(-155.561 -51.149)" fill="#204283"/>
        <path id="Path_36957" data-name="Path 36957" d="M1242.56,313.27a4.467,4.467,0,0,1-4.47,4.47h0a4.467,4.467,0,0,1-4.47-4.47V274.14a4.467,4.467,0,0,1,4.47-4.47h0a4.467,4.467,0,0,1,4.47,4.47Z" transform="translate(-159.218 -48.956)" fill="#204283"/>
        <g id="Group_34944" data-name="Group 34944" transform="translate(874.941 316.182)">
          <path id="Path_36958" data-name="Path 36958" d="M1133.458,821.73l-3.492,20.264-19.286,3.073,4.339-19.845" transform="translate(-1018.553 -435.217)" fill="#fff" stroke="#3a69ac" stroke-linecap="round" stroke-linejoin="round" stroke-width="3"/>
          <path id="Path_36959" data-name="Path 36959" d="M1032.041,497.054s-29.082,4.357-26.75,32.565c.786,9.56,17.156,92.177,17.156,92.177l76.331-7.264s-20.5-105.265-33.587-113.986-33.15-3.492-33.15-3.492Z" transform="translate(-1005.158 -393.805)" fill="#3a69ac"/>
          <path id="Path_36960" data-name="Path 36960" d="M1024.96,638.643s3.684,23.346,11.926,45.364c12.415,33.176,23.049,49.668,20.063,74.262-4.47,36.843-18.492,57.622-18.492,57.622l32.286,5.168s20.124-67.636,17.147-77.327c-5.23-45.364-10.066-115.523-10.066-115.523l-52.855,10.433Z" transform="translate(-1007.671 -410.652)" fill="#3a69ac"/>
          <path id="Path_36961" data-name="Path 36961" d="M1100.867,618.68s38.519,56.207,40.265,95.9c1.423,32.347-11.367,90.606-11.367,90.606l-26.96-.856s9.638-74.1,3.675-91.985c-17.444-31.4-43.6-69.687-43.6-69.687l38-23.974Z" transform="translate(-1012.485 -409.442)" fill="#3a69ac"/>
          <path id="Path_36962" data-name="Path 36962" d="M1025.035,510.893s19.626-5.893,27.047,14.178.856,34.172-11.061,36.328c-24.874,4.488-42.588-47.451-15.986-50.5Z" transform="translate(-1006 -395.657)" fill="#a5c5e8"/>
          <path id="Path_36963" data-name="Path 36963" d="M1075.931,527.184c.664,2.078-8.067,7.4-8.067,7.4a69.214,69.214,0,0,0-4.9-10.18,51.876,51.876,0,0,0-5.3-7.211c-3.326-3.108-7.683-7.473-12.572-9.63a31.927,31.927,0,0,0-5.518-1.964c-3.9-1-4.156-4.95-.174-5.631a19.186,19.186,0,0,1,6.076-.812,26.121,26.121,0,0,1,6.147.925,28.013,28.013,0,0,1,6.094,1.991,35.669,35.669,0,0,1,5.465,3.187c1.868,1.144,9.01,10.276,12.738,21.922Z" transform="translate(-1009.14 -394.269)" fill="#a5c5e8"/>
          <g id="Group_34941" data-name="Group 34941" transform="translate(6.384 39.806)">
            <path id="Path_36964" data-name="Path 36964" d="M1033.685,452.993l-2.968,19.207-13.462-12.354-4.784-9.543,5.378-5.081s20.316-16.431,23.6-20.168,14.039,17.156,4.776,25.816" transform="translate(-1012.47 -424.613)" fill="#204283"/>
            <path id="Path_36965" data-name="Path 36965" d="M1030.79,475.29l1.676,23.555s8.4,4.252,13.192,3.6a11.176,11.176,0,0,0,7.22-4.042l-7.77-22.961Z" transform="translate(-1014.796 -431.046)" fill="#fff" stroke="#3a69ac" stroke-linecap="round" stroke-linejoin="round" stroke-width="3"/>
            <path id="Path_36966" data-name="Path 36966" d="M1046.3,449.58l-14.4,5.684s1.5,6.557,1.187,7.316l-4.112,2.488c-2,1.388-2.191,4.566-.437,7.1s4.8,3.475,6.8,2.087a3.682,3.682,0,0,0,1.092-1.231c4.138,4.191,7.124,6.111,12.6,6.111,10.381,0-2.733-29.544-2.733-29.544Z" transform="translate(-1014.359 -427.782)" fill="#fff" stroke="#3a69ac" stroke-linecap="round" stroke-linejoin="round" stroke-width="2"/>
          </g>
          <path id="Path_36967" data-name="Path 36967" d="M1088.795,421.41h-8.285c.96,18.666-8.809,35.918-20.019,49.546l14.694,12.214c14.135-29.894,13.611-61.76,13.611-61.76Z" transform="translate(-1012.181 -384.4)" fill="#fff" stroke="#3a69ac" stroke-linecap="round" stroke-linejoin="round" stroke-width="3"/>
          <path id="Path_36968" data-name="Path 36968" d="M1022.862,507.537a41.841,41.841,0,0,0-5.081,7.543c-2.7,5.073-2.7,12.066,1.667,14.685,13.96,9.595,27.047-6.077,35.481-16.265,1.747-2.121,3.37-4.26,4.907-6.522s2.96-4.461,4.3-6.81c.987-1.624,1.921-3.021,2.8-4.68q1.362-2.54,2.576-5.125l-14.693-12.214C1054.624,478.394,1027.3,502.692,1022.862,507.537Z" transform="translate(-1006.525 -391.603)" fill="#a5c5e8" stroke="#3a69ac" stroke-linecap="round" stroke-linejoin="round" stroke-width="3"/>
          <rect id="Rectangle_8268" data-name="Rectangle 8268" width="12.572" height="28.278" transform="translate(42.704 86.913) rotate(-50.23)" fill="#a5c5e8" stroke="#3a69ac" stroke-linecap="round" stroke-linejoin="round" stroke-width="3"/>
          <path id="Path_36969" data-name="Path 36969" d="M1092.733,608.84s-46.595,12.878-71.643,9.787l1.825,22.4s48.394-11.9,71.049-23.747c.4-.209.018-1.275.018-1.275l-1.257-7.168Z" transform="translate(-1007.18 -408.193)" fill="#fff" stroke="#3a69ac" stroke-linecap="round" stroke-linejoin="round" stroke-width="3"/>
          <g id="Group_34942" data-name="Group 34942" transform="translate(86.732 402.324)">
            <path id="Path_36970" data-name="Path 36970" d="M1124.921,861.164l-1.746-2.182-17.208-1.161-1.467,4.723s49.939,5.675,50.812,1.964a7.862,7.862,0,0,0,.463-2.471Z" transform="translate(-1104.5 -842.123)" fill="#a5c5e8" stroke="#3a69ac" stroke-linecap="round" stroke-linejoin="round" stroke-width="3"/>
            <path id="Path_36971" data-name="Path 36971" d="M1125.135,858.882l30.854.873c-.192-1.266,1.973-2.637-5.151-6.792-3.868-2.252-12.022-2.383-14.938-4.583a29.712,29.712,0,0,1-7.561-8.539s-6.618,8.067-10.319,6.539-8.067-2.907-8.067-2.907l-3.763,12.074,17.208,1.161,1.746,2.183Z" transform="translate(-1104.715 -839.84)" fill="#a5c5e8" stroke="#3a69ac" stroke-linecap="round" stroke-linejoin="round" stroke-width="3"/>
          </g>
          <g id="Group_34943" data-name="Group 34943" transform="translate(26.351 415.324)">
            <path id="Path_36972" data-name="Path 36972" d="M1055.8,875.8l-1.659-2.244-17.156-1.825-1.65,4.662s49.686,7.6,50.7,3.938a7.966,7.966,0,0,0,.559-2.453l-30.793-2.069Z" transform="translate(-1035.34 -856.888)" fill="#a5c5e8" stroke="#3a69ac" stroke-linecap="round" stroke-linejoin="round" stroke-width="3"/>
            <path id="Path_36973" data-name="Path 36973" d="M1056.044,873.641l30.793,2.069c-.148-1.275,2.069-2.558-4.889-6.993-3.772-2.4-11.926-2.846-14.746-5.16a29.667,29.667,0,0,1-7.22-8.827s-6.923,7.805-10.573,6.138-7.954-3.222-7.954-3.222l-4.226,11.917,17.156,1.825,1.659,2.244Z" transform="translate(-1035.58 -854.73)" fill="#a5c5e8" stroke="#3a69ac" stroke-linecap="round" stroke-linejoin="round" stroke-width="3"/>
          </g>
          <path id="Path_36974" data-name="Path 36974" d="M1091.735,419.783l-10.154-.454a6.027,6.027,0,0,1-1.144-.969c-.515-.585.646-2.584.646-2.584s-3.6-5.989-4.321-11.035-4.566-10.1-2.165-10.1,2.4,4.33,3.605,3.85c.6-.236.908-4.191.332-8.067s-2.017-7.674-.332-7.316c3.361.716,4.863,13.139,4.863,13.139s.358-3.981.454-8.154c.1-4.479.017-9.158,2.139-9.071,1.825.079,1.685,4.191,2.069,8.294a70.464,70.464,0,0,0,1.3,8.05s1.274-13.5,2.715-12.057.044,13.436.908,13.454,2.148-8.364,3.353-7.648-.48,15.139-.48,15.139.235,8.495-3.134,12.336c0,0,1.379,2.628-.646,3.2Z" transform="translate(-1013.873 -379.019)" fill="#204283"/>
        </g>
        <path id="Path_36975" data-name="Path 36975" d="M1078.212,553.463c1.074,2.785,1,5.4-.148,5.841s-2.951-1.458-4.025-4.243-1-5.4.148-5.849,2.951,1.458,4.025,4.243Z" transform="translate(-138.864 -84.433)" fill="#fff"/>
        <path id="Path_36976" data-name="Path 36976" d="M1089.093,546.844c1.074,2.785,1,5.4-.149,5.849s-2.951-1.458-4.025-4.243-1-5.4.148-5.849S1088.019,544.059,1089.093,546.844Z" transform="translate(-140.245 -83.594)" fill="#fff"/>
      </g>
      <path id="Path_36977" data-name="Path 36977" d="M1019.388,617.11h18.631a5.593,5.593,0,0,1,5.587,5.588v37.637a5.593,5.593,0,0,1-5.587,5.588h-18.631a5.593,5.593,0,0,1-5.588-5.588V622.7A5.592,5.592,0,0,1,1019.388,617.11Z" transform="translate(-131.314 -93.06)" fill="#dce8f6" stroke="#3a69ac" stroke-linecap="round" stroke-linejoin="round" stroke-width="3"/>
    </g>
    <path id="Path_36978" data-name="Path 36978" d="M1912.641,700.681c-.122-1.685-.253-3.274-.367-4.776s-.131-2.916-.2-4.217-.131-2.5-.122-3.58c-.026-1.423-.044-2.619-.044-3.623,2.479-2.436,20.255-21.3,5.64-48.106,0,0-26.995,19.539-6.129,48.1-.148.986-.323,2.183-.48,3.579-.271,2.165-.48,4.811-.681,7.858-.07,1.519-.131,3.134-.2,4.846-.1,1.711.157,3.5.236,5.369.1,1.458.183,2.977.3,4.531-1-1.318-2.323-3.047-3.65-4.784-.663-.873-1.336-1.755-1.964-2.567-.244-.3-.471-.585-.7-.864,4.034-37.14-22.857-42.378-22.857-42.378.664,39.165,16.519,42.561,21.416,42.666.358.445.742.908,1.144,1.4.62.812,1.292,1.685,1.948,2.549,1.327,1.737,2.654,3.475,3.64,4.784.148.148.21.349.367.454.148.122.305.227.436.341.148.1.253.183.367.279.2,1.825.4,3.693.6,5.631.122,1.065.21,2.148.367,3.239s.34,2.183.515,3.291q.537,3.339,1.083,6.8c.454,2.322.882,4.6,1.405,6.967.253,1.117.515,2.244.777,3.37a9.725,9.725,0,0,0-.5-.873c-.314-.524-.637-1.057-.96-1.6-.637-1.065-1.283-2.148-1.894-3.152-.655-.978-1.275-1.886-1.8-2.663a5.137,5.137,0,0,0-.384-.55c-.157-.148-.323-.288-.463-.428-.14-.122-.244-.2-.367-.306-.786-5.771-5.657-28.558-33.735-33.709,0,0-1.8,33.229,33.447,35.018a1.378,1.378,0,0,1,.061.175,4.24,4.24,0,0,0,.367.541c.524.768,1.117,1.659,1.772,2.61.594.987,1.231,2.043,1.868,3.108.314.524.637,1.056.952,1.571a14.249,14.249,0,0,1,.838,1.563c.515,1.039.987,2.008,1.406,2.837a2.668,2.668,0,0,0,.305.585c.079.1.157.192.245.288,1.021,4.322,2.06,8.678,2.828,13.07.48,2.41.769,4.845,1.1,7.255.157,1.214.21,2.427.323,3.632.087,1.214.218,2.418.218,3.614,0,.271.009.533.018.812-.079-.166-.166-.332-.253-.5a23.713,23.713,0,0,0-1.283-2.218c-.437-.777-1.021-1.493-1.554-2.261-.585-.725-1.17-1.476-1.824-2.165-.629-.6-1.222-1.266-1.9-1.816.166-.052.323-.087.489-.148,0,0-9.167-27.44-38.886-22.315,0,0,6.984,31.386,36.9,22.909.166.14.332.262.489.4a21.786,21.786,0,0,1,1.955,1.86c.62.663,1.178,1.38,1.746,2.069.507.742,1.065,1.423,1.484,2.174.463.716.873,1.432,1.24,2.13.384.69.681,1.362.978,1.982.166.306.227.637.393.9a1.387,1.387,0,0,1,.07.122c0,1.083,0,2.156-.079,3.23-.052,1.179-.1,2.349-.148,3.51-.1,1.161-.236,2.322-.358,3.457s-.236,2.27-.349,3.4c-.175,1.118-.358,2.226-.533,3.318-.366,2.191-.664,4.33-1.161,6.391-.463,2.06-.9,4.068-1.327,6.015-.122.454-.244.9-.366,1.344-.1-.437-.219-.873-.367-1.31a19.365,19.365,0,0,0-2.409-4.95c-.113-.14-.157-.332-.306-.437s-.279-.218-.4-.314c-.175-.122-.314-.209-.463-.314-.262-3.047-3.056-25.345-27.72-27.877,0,0-1.58,29.221,27.179,28.235.061.175.122.34.192.55.052.14.1.3.157.454s.2.262.28.419a17.91,17.91,0,0,1,2.243,4.619,14.2,14.2,0,0,1,.611,2.663c.079.428.1.847.131,1.249v.175c-.1.349-.184.7-.279,1.048-.244.882-.489,1.764-.724,2.619-.253.838-.533,1.659-.725,2.479q-.615,2.462-1.161,4.653c-.69,2.942-1.449,5.457-2.052,7.543-1.2,4.173-1.842,6.583-1.842,6.583s1.022-2.261,2.75-6.251c.864-2.008,1.938-4.426,2.986-7.273.384-.969.777-2.008,1.2-3.065.1-.044.175-.079.28-.131.14-.07.306-.148.463-.227s.262-.253.419-.367a8.016,8.016,0,0,1,.943-.794c.358-.245.751-.506,1.144-.777s.794-.568,1.231-.829c.445-.218.908-.454,1.362-.69a8.558,8.558,0,0,1,1.38-.637c.471-.183.943-.358,1.379-.515a9.441,9.441,0,0,1,1.327-.393c.428-.1.821-.244,1.2-.3a2.677,2.677,0,0,0,.55-.1c.079-.044.157-.079.244-.122,5.081,1.344,28.593,6.015,44.2-18.517,0,0-29.806-14-44.8,17.374a3.489,3.489,0,0,1-.437.079c-.4.061-.821.2-1.275.306a11.609,11.609,0,0,0-1.405.419c-.472.175-.969.358-1.467.559a10.961,10.961,0,0,0-1.458.672c-.48.245-.96.5-1.432.742-.463.271-.882.585-1.3.864s-.821.559-1.2.829a2.874,2.874,0,0,0-.506.393c.48-1.4.8-2.907,1.249-4.435q.734-2.711,1.528-5.631c.428-1.982.882-4.016,1.336-6.1.506-2.087.821-4.278,1.187-6.513.175-1.109.358-2.235.542-3.379.061-.585.131-1.187.183-1.781.07-.026.131-.052.2-.079.122-.052.174-.192.279-.271.76-.759,1.772-1.763,2.768-2.776,1.013-1.013,2.017-2.017,2.776-2.785.061-.07.14-.122.192-.183,6.46-.934,28.269-6.1,33.481-33.412,0,0-33.333-2.052-35.281,33.368-.637.637-1.353,1.371-2.086,2.087l-2.147,2.148c.114-1.1.245-2.209.341-3.335.052-1.2.1-2.4.148-3.606.174-2.418.061-4.872.018-7.351,0-1.231-.14-2.471-.218-3.711-.114-1.24-.166-2.488-.332-3.737-.253-1.842-.506-3.693-.8-5.535.026-.2.061-.393.07-.611.14-1.161.192-2.514.446-3.964.235-1.449.445-2.995.76-4.54.559-3.082,1.248-6.146,1.772-8.442a6.157,6.157,0,0,0,.183-.821c0-.148.017-.3.026-.436,3.23-1.607,26.891-14.484,16.492-43.461,0,0-32.766,20.185-17.408,42.806a.743.743,0,0,1-.035.079c-.1.227-.21.463-.323.716s-.1.541-.193.829c-.541,2.3-1.231,5.387-1.79,8.495-.314,1.545-.532,3.126-.768,4.592-.018.1-.018.21-.035.314-.794-4.051-1.755-8.032-2.68-11.961-.576-2.366-1.1-4.723-1.615-7.028s-.96-4.68-1.4-6.914c-.358-2.279-.716-4.522-1.056-6.723-.174-1.1-.341-2.183-.515-3.256-.148-1.074-.236-2.139-.358-3.2q-.3-2.828-.585-5.509a12.214,12.214,0,0,1,.3-1.537,19.511,19.511,0,0,1,.533-1.947,17.782,17.782,0,0,1,.69-1.912c.227-.62.541-1.2.8-1.79a28.449,28.449,0,0,1,1.754-3.012c.123-.218.306-.384.41-.6s.2-.428.279-.62a.045.045,0,0,1,.018-.035c5.142-1.6,21.66-8.408,17.278-28.881,0,0-23.66,5.561-18.806,29.038a2.408,2.408,0,0,1-.245.367,28.118,28.118,0,0,0-1.842,3.16c-.279.62-.594,1.222-.838,1.877-.235.576-.445,1.161-.637,1.764-.043-.76-.087-1.519-.14-2.253-.148-1.842-.148-3.615-.253-5.291Z" transform="translate(-237.684 -79.648)" fill="#5786c5"/>
    <g id="Group_34951" data-name="Group 34951" transform="translate(737.049 495.461)">
      <g id="Group_34947" data-name="Group 34947">
        <path id="Path_36979" data-name="Path 36979" d="M851.865,570.242a4.042,4.042,0,1,1-4.042-4.042A4.039,4.039,0,0,1,851.865,570.242Z" transform="translate(-843.78 -566.2)" fill="#a5c5e8"/>
        <path id="Path_36980" data-name="Path 36980" d="M878.195,570.242a4.042,4.042,0,1,1-4.042-4.042A4.039,4.039,0,0,1,878.195,570.242Z" transform="translate(-847.122 -566.2)" fill="#a5c5e8"/>
        <path id="Path_36981" data-name="Path 36981" d="M904.526,570.242a4.038,4.038,0,1,1-4.034-4.042A4.037,4.037,0,0,1,904.526,570.242Z" transform="translate(-850.466 -566.2)" fill="#a5c5e8"/>
        <path id="Path_36982" data-name="Path 36982" d="M930.855,570.242a4.042,4.042,0,1,1-4.042-4.042A4.039,4.039,0,0,1,930.855,570.242Z" transform="translate(-853.807 -566.2)" fill="#a5c5e8"/>
        <path id="Path_36983" data-name="Path 36983" d="M957.185,570.242a4.042,4.042,0,1,1-4.042-4.042A4.039,4.039,0,0,1,957.185,570.242Z" transform="translate(-857.15 -566.2)" fill="#a5c5e8"/>
        <path id="Path_36984" data-name="Path 36984" d="M983.506,570.242a4.038,4.038,0,1,1-4.033-4.042A4.037,4.037,0,0,1,983.506,570.242Z" transform="translate(-860.492 -566.2)" fill="#a5c5e8"/>
      </g>
      <g id="Group_34948" data-name="Group 34948" transform="translate(0 25.153)">
        <path id="Path_36985" data-name="Path 36985" d="M851.865,599.044a4.042,4.042,0,1,1-4.042-4.034A4.039,4.039,0,0,1,851.865,599.044Z" transform="translate(-843.78 -595.01)" fill="#a5c5e8"/>
        <path id="Path_36986" data-name="Path 36986" d="M878.195,599.044a4.042,4.042,0,1,1-4.042-4.034A4.039,4.039,0,0,1,878.195,599.044Z" transform="translate(-847.122 -595.01)" fill="#a5c5e8"/>
        <path id="Path_36987" data-name="Path 36987" d="M904.526,599.044a4.038,4.038,0,1,1-4.034-4.034A4.037,4.037,0,0,1,904.526,599.044Z" transform="translate(-850.466 -595.01)" fill="#a5c5e8"/>
        <path id="Path_36988" data-name="Path 36988" d="M930.855,599.044a4.042,4.042,0,1,1-4.042-4.034A4.039,4.039,0,0,1,930.855,599.044Z" transform="translate(-853.807 -595.01)" fill="#a5c5e8"/>
        <path id="Path_36989" data-name="Path 36989" d="M957.185,599.044a4.042,4.042,0,1,1-4.042-4.034A4.039,4.039,0,0,1,957.185,599.044Z" transform="translate(-857.15 -595.01)" fill="#a5c5e8"/>
        <path id="Path_36990" data-name="Path 36990" d="M983.506,599.044a4.038,4.038,0,1,1-4.033-4.034A4.037,4.037,0,0,1,983.506,599.044Z" transform="translate(-860.492 -595.01)" fill="#a5c5e8"/>
      </g>
      <g id="Group_34949" data-name="Group 34949" transform="translate(0 50.288)">
        <path id="Path_36991" data-name="Path 36991" d="M851.865,627.842a4.042,4.042,0,1,1-4.042-4.042A4.045,4.045,0,0,1,851.865,627.842Z" transform="translate(-843.78 -623.8)" fill="#a5c5e8"/>
        <path id="Path_36992" data-name="Path 36992" d="M878.195,627.842a4.042,4.042,0,1,1-4.042-4.042A4.045,4.045,0,0,1,878.195,627.842Z" transform="translate(-847.122 -623.8)" fill="#a5c5e8"/>
        <path id="Path_36993" data-name="Path 36993" d="M904.526,627.842a4.038,4.038,0,1,1-4.034-4.042A4.043,4.043,0,0,1,904.526,627.842Z" transform="translate(-850.466 -623.8)" fill="#a5c5e8"/>
        <path id="Path_36994" data-name="Path 36994" d="M930.855,627.842a4.042,4.042,0,1,1-4.042-4.042A4.045,4.045,0,0,1,930.855,627.842Z" transform="translate(-853.807 -623.8)" fill="#a5c5e8"/>
        <path id="Path_36995" data-name="Path 36995" d="M957.185,627.842a4.042,4.042,0,1,1-4.042-4.042A4.045,4.045,0,0,1,957.185,627.842Z" transform="translate(-857.15 -623.8)" fill="#a5c5e8"/>
        <path id="Path_36996" data-name="Path 36996" d="M983.506,627.842a4.038,4.038,0,1,1-4.033-4.042A4.043,4.043,0,0,1,983.506,627.842Z" transform="translate(-860.492 -623.8)" fill="#a5c5e8"/>
      </g>
      <g id="Group_34950" data-name="Group 34950" transform="translate(0 75.423)">
        <path id="Path_36997" data-name="Path 36997" d="M851.865,656.632a4.042,4.042,0,1,1-4.042-4.042A4.037,4.037,0,0,1,851.865,656.632Z" transform="translate(-843.78 -652.59)" fill="#a5c5e8"/>
        <path id="Path_36998" data-name="Path 36998" d="M878.195,656.632a4.042,4.042,0,1,1-4.042-4.042A4.037,4.037,0,0,1,878.195,656.632Z" transform="translate(-847.122 -652.59)" fill="#a5c5e8"/>
        <path id="Path_36999" data-name="Path 36999" d="M904.526,656.632a4.038,4.038,0,1,1-4.034-4.042A4.035,4.035,0,0,1,904.526,656.632Z" transform="translate(-850.466 -652.59)" fill="#a5c5e8"/>
        <path id="Path_37000" data-name="Path 37000" d="M930.855,656.632a4.042,4.042,0,1,1-4.042-4.042A4.037,4.037,0,0,1,930.855,656.632Z" transform="translate(-853.807 -652.59)" fill="#a5c5e8"/>
        <path id="Path_37001" data-name="Path 37001" d="M957.185,656.632a4.042,4.042,0,1,1-4.042-4.042A4.037,4.037,0,0,1,957.185,656.632Z" transform="translate(-857.15 -652.59)" fill="#a5c5e8"/>
        <path id="Path_37002" data-name="Path 37002" d="M983.506,656.632a4.038,4.038,0,1,1-4.033-4.042A4.035,4.035,0,0,1,983.506,656.632Z" transform="translate(-860.492 -652.59)" fill="#a5c5e8"/>
      </g>
    </g>
    <g id="Group_34956" data-name="Group 34956" transform="translate(1207.261 282.112)">
      <g id="Group_34952" data-name="Group 34952">
        <path id="Path_37003" data-name="Path 37003" d="M1388.314,324.807a2.977,2.977,0,1,1-2.977-2.977A2.975,2.975,0,0,1,1388.314,324.807Z" transform="translate(-1382.36 -321.83)" fill="#5786c5"/>
        <path id="Path_37004" data-name="Path 37004" d="M1407.694,324.807a2.977,2.977,0,1,1-2.977-2.977A2.975,2.975,0,0,1,1407.694,324.807Z" transform="translate(-1384.82 -321.83)" fill="#5786c5"/>
        <path id="Path_37005" data-name="Path 37005" d="M1427.066,324.807a2.973,2.973,0,1,1-2.968-2.977A2.973,2.973,0,0,1,1427.066,324.807Z" transform="translate(-1387.281 -321.83)" fill="#5786c5"/>
        <path id="Path_37006" data-name="Path 37006" d="M1446.446,324.807a2.973,2.973,0,1,1-2.969-2.977A2.973,2.973,0,0,1,1446.446,324.807Z" transform="translate(-1389.741 -321.83)" fill="#5786c5"/>
        <path id="Path_37007" data-name="Path 37007" d="M1465.825,324.807a2.977,2.977,0,1,1-2.977-2.977A2.981,2.981,0,0,1,1465.825,324.807Z" transform="translate(-1392.199 -321.83)" fill="#5786c5"/>
        <path id="Path_37008" data-name="Path 37008" d="M1485.2,324.807a2.973,2.973,0,1,1-2.969-2.977A2.979,2.979,0,0,1,1485.2,324.807Z" transform="translate(-1394.66 -321.83)" fill="#5786c5"/>
      </g>
      <g id="Group_34953" data-name="Group 34953" transform="translate(0 18.509)">
        <path id="Path_37009" data-name="Path 37009" d="M1388.314,346a2.977,2.977,0,1,1-2.977-2.968A2.975,2.975,0,0,1,1388.314,346Z" transform="translate(-1382.36 -343.03)" fill="#5786c5"/>
        <path id="Path_37010" data-name="Path 37010" d="M1407.694,346a2.977,2.977,0,1,1-2.977-2.968A2.975,2.975,0,0,1,1407.694,346Z" transform="translate(-1384.82 -343.03)" fill="#5786c5"/>
        <path id="Path_37011" data-name="Path 37011" d="M1427.066,346a2.973,2.973,0,1,1-2.968-2.968A2.973,2.973,0,0,1,1427.066,346Z" transform="translate(-1387.281 -343.03)" fill="#5786c5"/>
        <path id="Path_37012" data-name="Path 37012" d="M1446.446,346a2.973,2.973,0,1,1-2.969-2.968A2.973,2.973,0,0,1,1446.446,346Z" transform="translate(-1389.741 -343.03)" fill="#5786c5"/>
        <path id="Path_37013" data-name="Path 37013" d="M1465.825,346a2.977,2.977,0,1,1-2.977-2.968A2.981,2.981,0,0,1,1465.825,346Z" transform="translate(-1392.199 -343.03)" fill="#5786c5"/>
        <path id="Path_37014" data-name="Path 37014" d="M1485.2,346a2.973,2.973,0,1,1-2.969-2.968A2.979,2.979,0,0,1,1485.2,346Z" transform="translate(-1394.66 -343.03)" fill="#5786c5"/>
      </g>
      <g id="Group_34954" data-name="Group 34954" transform="translate(0 37.009)">
        <path id="Path_37015" data-name="Path 37015" d="M1388.314,367.2a2.977,2.977,0,1,1-2.977-2.977A2.975,2.975,0,0,1,1388.314,367.2Z" transform="translate(-1382.36 -364.22)" fill="#5786c5"/>
        <path id="Path_37016" data-name="Path 37016" d="M1407.694,367.2a2.977,2.977,0,1,1-2.977-2.977A2.975,2.975,0,0,1,1407.694,367.2Z" transform="translate(-1384.82 -364.22)" fill="#5786c5"/>
        <path id="Path_37017" data-name="Path 37017" d="M1427.066,367.2a2.973,2.973,0,1,1-2.968-2.977A2.973,2.973,0,0,1,1427.066,367.2Z" transform="translate(-1387.281 -364.22)" fill="#5786c5"/>
        <path id="Path_37018" data-name="Path 37018" d="M1446.446,367.2a2.973,2.973,0,1,1-2.969-2.977A2.973,2.973,0,0,1,1446.446,367.2Z" transform="translate(-1389.741 -364.22)" fill="#5786c5"/>
        <path id="Path_37019" data-name="Path 37019" d="M1465.825,367.2a2.977,2.977,0,1,1-2.977-2.977A2.981,2.981,0,0,1,1465.825,367.2Z" transform="translate(-1392.199 -364.22)" fill="#5786c5"/>
        <path id="Path_37020" data-name="Path 37020" d="M1485.2,367.2a2.973,2.973,0,1,1-2.969-2.977A2.979,2.979,0,0,1,1485.2,367.2Z" transform="translate(-1394.66 -364.22)" fill="#5786c5"/>
      </g>
      <g id="Group_34955" data-name="Group 34955" transform="translate(0 55.509)">
        <path id="Path_37021" data-name="Path 37021" d="M1388.314,388.387a2.977,2.977,0,1,1-2.977-2.977A2.968,2.968,0,0,1,1388.314,388.387Z" transform="translate(-1382.36 -385.41)" fill="#5786c5"/>
        <path id="Path_37022" data-name="Path 37022" d="M1407.694,388.387a2.977,2.977,0,1,1-2.977-2.977A2.968,2.968,0,0,1,1407.694,388.387Z" transform="translate(-1384.82 -385.41)" fill="#5786c5"/>
        <path id="Path_37023" data-name="Path 37023" d="M1427.066,388.387a2.973,2.973,0,1,1-2.968-2.977A2.966,2.966,0,0,1,1427.066,388.387Z" transform="translate(-1387.281 -385.41)" fill="#5786c5"/>
        <path id="Path_37024" data-name="Path 37024" d="M1446.446,388.387a2.973,2.973,0,1,1-2.969-2.977A2.966,2.966,0,0,1,1446.446,388.387Z" transform="translate(-1389.741 -385.41)" fill="#5786c5"/>
        <path id="Path_37025" data-name="Path 37025" d="M1465.825,388.387a2.977,2.977,0,1,1-2.977-2.977A2.974,2.974,0,0,1,1465.825,388.387Z" transform="translate(-1392.199 -385.41)" fill="#5786c5"/>
        <path id="Path_37026" data-name="Path 37026" d="M1485.2,388.387a2.973,2.973,0,1,1-2.969-2.977A2.971,2.971,0,0,1,1485.2,388.387Z" transform="translate(-1394.66 -385.41)" fill="#5786c5"/>
      </g>
    </g>
    <g id="Group_34957" data-name="Group 34957" transform="translate(1049.842 633.739)">
      <path id="Path_37027" data-name="Path 37027" d="M1241.817,830.788S1219.2,717.282,1239.8,724.956s23.424,95.329,14.135,107.849" transform="translate(-1205.745 -724.584)" fill="#5786c5" stroke="#3a69ac" stroke-miterlimit="10" stroke-width="3"/>
      <path id="Path_37028" data-name="Path 37028" d="M1235.934,844.619s-4.025-46.351-26.192-43.932,10.075,40.3,15.715,43.932" transform="translate(-1202.053 -734.233)" fill="#a5c5e8" stroke="#3a69ac" stroke-linecap="round" stroke-linejoin="round" stroke-width="3"/>
      <path id="Path_37029" data-name="Path 37029" d="M1211.159,779s-6.042,18.133,10.075,14.912,11.437-3.833,11.437-3.833" transform="translate(-1203.068 -731.491)" fill="#a5c5e8" stroke="#3a69ac" stroke-miterlimit="10" stroke-width="3"/>
      <path id="Path_37030" data-name="Path 37030" d="M1241.889,839.957s-5.238-69.321-12.9-72.141-20.552,3.221-17.732,9.673,21.766,62.878,21.766,62.878" transform="translate(-1203.172 -729.981)" fill="#dce8f6" stroke="#3a69ac" stroke-linecap="round" stroke-linejoin="round" stroke-width="3"/>
      <path id="Path_37031" data-name="Path 37031" d="M1295.366,763.3s5.256,21.809-4.845,29.082-17.776-6.059-17.776-6.059l-1.615-23.835" transform="translate(-1210.822 -729.396)" fill="#a5c5e8" stroke="#3a69ac" stroke-miterlimit="10" stroke-width="3"/>
      <path id="Path_37032" data-name="Path 37032" d="M1251.24,836.405s5.658-92.1,25.45-86.441,16.16,16.562,16.16,16.562-4.845-4.444-7.674,1.213-17.374,70.29-17.374,70.29" transform="translate(-1208.297 -727.774)" fill="#dce8f6" stroke="#3a69ac" stroke-linecap="round" stroke-linejoin="round" stroke-width="3"/>
      <path id="Path_37033" data-name="Path 37033" d="M1261.45,843.14s8.084-45.818,29.955-41.453-13.576,39.262-19.521,42.378" transform="translate(-1209.593 -734.334)" fill="#a5c5e8" stroke="#3a69ac" stroke-miterlimit="10" stroke-width="3"/>
      <path id="Path_37034" data-name="Path 37034" d="M1240.6,731.49s10.616,66.221,6.976,102.576" transform="translate(-1206.946 -725.46)" fill="none" stroke="#3a69ac" stroke-linecap="round" stroke-linejoin="round" stroke-width="2"/>
      <path id="Path_37035" data-name="Path 37035" d="M1223.02,772.21s13.733,48.071,14.947,64.632" transform="translate(-1204.714 -730.63)" fill="none" stroke="#3a69ac" stroke-linecap="round" stroke-linejoin="round" stroke-width="2"/>
      <path id="Path_37036" data-name="Path 37036" d="M1210.52,807.83s16.16,24.236,18.579,34.739" transform="translate(-1203.127 -735.151)" fill="none" stroke="#3a69ac" stroke-linecap="round" stroke-linejoin="round" stroke-width="2"/>
      <path id="Path_37037" data-name="Path 37037" d="M1278.256,757.4s-16.562,49.686-21.006,76.75" transform="translate(-1209.059 -728.749)" fill="none" stroke="#3a69ac" stroke-linecap="round" stroke-linejoin="round" stroke-width="2"/>
      <path id="Path_37038" data-name="Path 37038" d="M1266.213,843.76l-.393-.218a338.331,338.331,0,0,1,22.237-33.552l.358.271A338.382,338.382,0,0,0,1266.213,843.76Z" transform="translate(-1210.148 -735.425)" fill="none" stroke="#3a69ac" stroke-linecap="round" stroke-linejoin="round" stroke-width="2"/>
      <rect id="Rectangle_8269" data-name="Rectangle 8269" width="66.789" height="14.938" transform="translate(11.304 106.615)" fill="#5786c5" stroke="#3a69ac" stroke-miterlimit="10" stroke-width="3"/>
    </g>
    <path id="Path_37039" data-name="Path 37039" d="M1887.973,593.059v-8.835H1880.9a22.494,22.494,0,0,0-3.361-8.119l5-5-6.251-6.251-5,5a22.424,22.424,0,0,0-8.119-3.361V559.42h-8.835v7.072a22.486,22.486,0,0,0-8.119,3.361l-5-5-6.251,6.251,5,5a22.426,22.426,0,0,0-3.361,8.119h-7.072v8.835h7.072a22.489,22.489,0,0,0,3.361,8.119l-5,5,6.251,6.251,5-5a22.427,22.427,0,0,0,8.119,3.361v7.072h8.835v-7.072a22.493,22.493,0,0,0,8.119-3.361l5,5,6.251-6.251-5-5a22.425,22.425,0,0,0,3.361-8.119Zm-29.221,8.1a12.52,12.52,0,1,1,12.52-12.52A12.519,12.519,0,0,1,1858.751,601.161Z" transform="translate(-231.864 -69.878)" fill="#a5c5e8"/>
    <path id="Path_37040" data-name="Path 37040" d="M1565.111,328.36v-6.2h-4.959a15.712,15.712,0,0,0-2.357-5.692l3.51-3.51-4.383-4.383-3.51,3.51a15.712,15.712,0,0,0-5.692-2.357V304.77h-6.2v4.959a15.717,15.717,0,0,0-5.692,2.357l-3.51-3.51-4.382,4.383,3.51,3.51a15.713,15.713,0,0,0-2.357,5.692h-4.959v6.2h4.959a15.713,15.713,0,0,0,2.357,5.692l-3.51,3.51,4.382,4.383,3.51-3.51a15.716,15.716,0,0,0,5.692,2.357v4.959h6.2v-4.959a15.712,15.712,0,0,0,5.692-2.357l3.51,3.51,4.383-4.383-3.51-3.51a15.712,15.712,0,0,0,2.357-5.692Zm-20.491,5.684a8.783,8.783,0,1,1,8.783-8.783A8.784,8.784,0,0,1,1544.621,334.044Z" transform="translate(-193.096 -37.552)" fill="#5786c5"/>
    <g id="Group_34970" data-name="Group 34970" transform="translate(1228.851 404.27)">
      <g id="Group_34967" data-name="Group 34967">
        <path id="Path_37041" data-name="Path 37041" d="M1552.157,791.728a15.761,15.761,0,0,1-15.768,15.767H1422.857a15.761,15.761,0,0,1-15.767-15.767h0a15.761,15.761,0,0,1,15.767-15.767H1536.39a15.761,15.761,0,0,1,15.768,15.767Z" transform="translate(-1407.09 -501.637)" fill="#fff" stroke="#3a69ac" stroke-linecap="round" stroke-linejoin="round" stroke-width="3"/>
        <path id="Path_37042" data-name="Path 37042" d="M1552.157,687.687a15.761,15.761,0,0,1-15.768,15.767H1422.857a15.761,15.761,0,0,1-15.767-15.767h0a15.761,15.761,0,0,1,15.767-15.767H1536.39a15.761,15.761,0,0,1,15.768,15.767Z" transform="translate(-1407.09 -488.43)" fill="#fff" stroke="#3a69ac" stroke-linecap="round" stroke-linejoin="round" stroke-width="3"/>
        <path id="Path_37043" data-name="Path 37043" d="M1484.5,694.43a7.567,7.567,0,0,1-7.569,7.569h-54.5a7.568,7.568,0,0,1-7.57-7.569h0a7.568,7.568,0,0,1,7.57-7.569h54.5a7.567,7.567,0,0,1,7.569,7.569Z" transform="translate(-1408.076 -490.326)" fill="#a5c5e8"/>
        <path id="Path_37044" data-name="Path 37044" d="M1487.494,797.3a7.568,7.568,0,0,1-7.569,7.569h-54.5a7.567,7.567,0,0,1-7.57-7.569h0a7.567,7.567,0,0,1,7.57-7.569h54.5a7.568,7.568,0,0,1,7.569,7.569Z" transform="translate(-1408.456 -503.385)" fill="#a5c5e8"/>
        <g id="Group_34966" data-name="Group 34966" transform="translate(65.977)">
          <g id="Group_34958" data-name="Group 34958" transform="translate(384.861)">
            <path id="Path_37045" data-name="Path 37045" d="M1966.513,716.517c-24.384,0-40.842-1.144-43.033-1.3l2.287-31.22c1.65.122,155.736,10.721,237.952-36.1a197.734,197.734,0,0,1-27.99-24.943c-28.706-31.055-40.868-64.606-32.53-89.742,7.29-21.984,22.979-34.608,43.033-34.652h.1c30.932,0,66.693,31.552,79.754,70.4,9.08,27.013,5.867,52.7-8.591,73.59,22.752,9.289,48.516,13.271,74.76,6.8,59.473-14.659,106.269-79.536,135.324-187.6l30.226,8.128c-16.937,63-39.951,113.009-68.413,148.638-25.816,32.321-55.981,52.925-89.654,61.228-29.64,7.307-61.716,4.653-92.745-7.674-4.539-1.807-9.053-3.815-13.506-6.015-62,43.749-167.81,50.471-226.96,50.471Zm179.806-186.66h-.035c-2.7,0-9.01.017-13.384,13.209-3.737,11.254,2.8,33.752,25.807,58.635a169.512,169.512,0,0,0,30.793,26c13.3-16.588,11.5-35.088,6.9-48.769-9.3-27.659-34.547-49.075-50.078-49.075Z" transform="translate(-1923.48 -461.75)" fill="#3a69ac"/>
            <path id="Path_37046" data-name="Path 37046" d="M2237.6,636.638c43.443-62.092-59.917-158.216-82.146-91.226-24.237,73.066,217.706,270.517,308.948-68.832" transform="translate(-1952.712 -463.633)" fill="none" stroke="#3a69ac" stroke-linecap="round" stroke-linejoin="round" stroke-width="5"/>
            <path id="Path_37047" data-name="Path 37047" d="M1944.85,725.8s156.6,11.516,239.148-38.781" transform="translate(-1926.193 -490.346)" fill="none" stroke="#3a69ac" stroke-linecap="round" stroke-linejoin="round" stroke-width="5"/>
          </g>
          <g id="Group_34963" data-name="Group 34963" transform="translate(76.515 30.667)">
            <path id="Path_37048" data-name="Path 37048" d="M1845.1,808.55l8.94,19.006-17.976,5.125L1827.77,813.4" transform="translate(-1602.984 -536.441)" fill="#fff" stroke="#3a69ac" stroke-linecap="round" stroke-linejoin="round" stroke-width="3"/>
            <path id="Path_37049" data-name="Path 37049" d="M1716.979,822.31l5.028,20.037-17.7,4.566-.751-23.014" transform="translate(-1587.217 -538.188)" fill="#fff" stroke="#3a69ac" stroke-linecap="round" stroke-linejoin="round" stroke-width="3"/>
            <path id="Path_37050" data-name="Path 37050" d="M1732.012,549.61s24.158,14.545,30.968,34.966,13.951,109.909,25.179,124.847S1836,773.165,1836,773.165l-28.042,16.117s-41.925-57.272-51.79-73.861-26.2-91.453-26.2-91.453-21.1,57.927-22.115,81.744,15.986,88.039,15.986,88.039l-28.226.838s-17.706-60.381-19.408-91.6S1696.287,579.9,1696.287,579.9" transform="translate(-1583.732 -503.571)" fill="#3a69ac"/>
            <g id="Group_34959" data-name="Group 34959" transform="translate(16.073 11.733)">
              <path id="Path_37051" data-name="Path 37051" d="M1631.892,596.927c5.02-15.8,7.438-34.233,2.942-53.492-12.764-54.618-28.584-28.584-28.584-13.786,0,0,5.247,30.915,2.427,62.022C1612.877,594.674,1620.114,597.7,1631.892,596.927Z" transform="translate(-1590.937 -510.315)" fill="#a5c5e8" stroke="#3a69ac" stroke-linecap="round" stroke-linejoin="round" stroke-width="3"/>
              <path id="Path_37052" data-name="Path 37052" d="M1606.451,603.5c-1.746,19.295-6.6,38.668-17.74,50.786l13.786,3.571a149.213,149.213,0,0,0,27.169-49.1c-11.778.777-19.015-2.252-23.214-5.256Z" transform="translate(-1588.71 -522.144)" fill="#fff" stroke="#3a69ac" stroke-linecap="round" stroke-linejoin="round" stroke-width="3"/>
            </g>
            <path id="Path_37053" data-name="Path 37053" d="M1602.739,528.113s5.107-29.605,36.241-25.52,83.708,40.833,83.708,40.833S1704.31,581.2,1689,581.71s-86.267-29.605-86.267-51.554" transform="translate(-1574.417 -497.553)" fill="#3a69ac"/>
            <path id="Path_37054" data-name="Path 37054" d="M1588.416,663.13l-5.867,10.468L1570.3,683.8l27.3,1.79-2.549-8.172,3.065-12.249" transform="translate(-1570.3 -517.981)" fill="#a5c5e8" stroke="#3a69ac" stroke-linecap="round" stroke-linejoin="round" stroke-width="3"/>
            <path id="Path_37055" data-name="Path 37055" d="M1639.037,556.639s-13.017-21.477-7.91-34.067,9.979-13.419,9.979-13.419-22.481-9.551-27.074,9.586,11.865,32.155,11.865,32.155Z" transform="translate(-1575.749 -498.132)" fill="#a5c5e8"/>
            <path id="Path_37056" data-name="Path 37056" d="M1648.382,552.786s-19.138-40.746,12.336-37.69c26.262,2.558,41.017,29.9,36.6,36.878s-48.926.812-48.926.812Z" transform="translate(-1579.481 -499.168)" fill="#a5c5e8"/>
            <g id="Group_34960" data-name="Group 34960" transform="translate(199.635 289.474)">
              <path id="Path_37057" data-name="Path 37057" d="M1835.023,851.871l1.606-2.846,19.661-4.575,2.584,5.169s-56.617,15.951-58.32,11.83a9.576,9.576,0,0,1-1-2.768Z" transform="translate(-1799.036 -830.472)" fill="#a5c5e8" stroke="#3a69ac" stroke-linecap="round" stroke-linejoin="round" stroke-width="3"/>
              <path id="Path_37058" data-name="Path 37058" d="M1834.948,849.839l-35.473,6.81c-.018-1.5-2.776-2.672,4.671-8.818,4.042-3.335,13.445-5.02,16.4-8.1a34.828,34.828,0,0,0,7.125-11.289s9.158,8.076,13.156,5.614,8.774-4.88,8.774-4.88l6.618,13.235-19.662,4.575-1.606,2.846Z" transform="translate(-1798.962 -828.44)" fill="#a5c5e8" stroke="#3a69ac" stroke-linecap="round" stroke-linejoin="round" stroke-width="3"/>
            </g>
            <g id="Group_34961" data-name="Group 34961" transform="translate(81.463 295.891)">
              <path id="Path_37059" data-name="Path 37059" d="M1699.883,860.953l2.113-2.5,20.168-.786,1.563,5.57s-58.609,4.994-59.508.629a9.513,9.513,0,0,1-.463-2.907h36.118Z" transform="translate(-1663.623 -838.568)" fill="#a5c5e8" stroke="#3a69ac" stroke-linecap="round" stroke-linejoin="round" stroke-width="3"/>
              <path id="Path_37060" data-name="Path 37060" d="M1699.868,858.175h-36.119c.271-1.475-2.217-3.152,6.251-7.779,4.592-2.506,14.144-2.392,17.627-4.863a34.688,34.688,0,0,0,9.123-9.743s7.473,9.656,11.865,8,9.534-3.134,9.534-3.134l4.007,14.248-20.168.786-2.113,2.5Z" transform="translate(-1663.608 -835.79)" fill="#a5c5e8" stroke="#3a69ac" stroke-linecap="round" stroke-linejoin="round" stroke-width="3"/>
            </g>
            <g id="Group_34962" data-name="Group 34962" transform="translate(7.075)">
              <path id="Path_37061" data-name="Path 37061" d="M1611.81,514.34l12.38.506s4.365,5.43,3.448,11.3c-.89,5.675-4.531,8.739-8.425,9.185s-6.382-8.1-6.382-8.1" transform="translate(-1582.645 -499.093)" fill="#fff" stroke="#3a69ac" stroke-linecap="round" stroke-linejoin="round" stroke-width="3"/>
              <path id="Path_37062" data-name="Path 37062" d="M1585.789,527.062s15.654,31.308,22.455,22.464,4.593-34.032,4.593-34.032-13.437-2.043-27.056,11.568Z" transform="translate(-1579.341 -499.226)" fill="#fff" stroke="#3a69ac" stroke-linecap="round" stroke-linejoin="round" stroke-width="3"/>
              <path id="Path_37063" data-name="Path 37063" d="M1605.47,524.287l5.273,2.811s-1.187-2.977.594-3.745,5.439,1.449,4.505,5.195l3.571-5.614-4.165-10.634" transform="translate(-1581.84 -498.834)" fill="#204283"/>
              <path id="Path_37064" data-name="Path 37064" d="M1612.415,510.421s-.847-15.4-15.907-13.358c-8.766,1.187-26.628,16.422-13.358,29.693C1583.15,526.756,1604.584,531.182,1612.415,510.421Z" transform="translate(-1578.404 -496.876)" fill="#204283"/>
            </g>
            <path id="Path_37065" data-name="Path 37065" d="M1689.86,585.851s45.259-10.887,43.05-36.241l9.7,6.976s-3.143,14.344-13.253,22.237c-9.289,7.255-21.94,11.184-32.521,10.6l-6.976-3.571Z" transform="translate(-1585.478 -503.571)" fill="#fff" stroke="#3a69ac" stroke-linecap="round" stroke-linejoin="round" stroke-width="3"/>
            <rect id="Rectangle_8270" data-name="Rectangle 8270" width="13.786" height="36.834" transform="translate(25.136 98.045) rotate(-78.79)" fill="#a5c5e8" stroke="#3a69ac" stroke-linecap="round" stroke-linejoin="round" stroke-width="3"/>
          </g>
          <g id="Group_34965" data-name="Group 34965" transform="translate(0 128.505)">
            <g id="Group_34964" data-name="Group 34964">
              <path id="Path_37066" data-name="Path 37066" d="M1534.214,608.94a55.167,55.167,0,0,0-19.775,3.5c-.087,0-.174-.009-.262-.009-3.859,0-7.561,2.4-10.974,6.784a17.91,17.91,0,0,0-5.727,9.743c-8.9,19.225-14.816,53.344-14.816,92.239,0,60.066,14.117,108.757,31.526,108.757,1.641,0,14.606.742,20.037.742,20.421,0,36.983-10.093,36.983-22.534V631.482c0-12.441-16.562-22.534-36.983-22.534Z" transform="translate(-1482.66 -608.94)" fill="#fff" stroke="#3a69ac" stroke-linecap="round" stroke-linejoin="round" stroke-width="3"/>
              <path id="Path_37067" data-name="Path 37067" d="M1593.852,721.7c0,60.066-14.117,108.757-31.526,108.757S1530.8,781.763,1530.8,721.7s14.118-108.757,31.526-108.757S1593.852,661.63,1593.852,721.7Z" transform="translate(-1488.771 -609.448)" fill="#a5c5e8" stroke="#3a69ac" stroke-miterlimit="10" stroke-width="3"/>
            </g>
            <path id="Path_37068" data-name="Path 37068" d="M1764.46,732.856a23.968,23.968,0,0,1,23.974-23.966h113.532a23.973,23.973,0,0,1,23.974,23.966h0a23.967,23.967,0,0,1-23.974,23.965H1788.434a23.973,23.973,0,0,1-23.974-23.965Z" transform="translate(-1518.432 -621.628)" fill="#fff" stroke="#3a69ac" stroke-linecap="round" stroke-linejoin="round" stroke-width="3"/>
            <path id="Path_37069" data-name="Path 37069" d="M1913.86,715.32a20.687,20.687,0,0,1-20.631,19.172H1795.15a20.628,20.628,0,0,1-11.612-3.562c-.035.506-.079,1.013-.079,1.528a20.709,20.709,0,0,0,20.709,20.709h98.08a20.707,20.707,0,0,0,11.62-37.847Z" transform="translate(-1520.844 -622.444)" fill="#a5c5e8"/>
            <path id="Path_37070" data-name="Path 37070" d="M1706.66,719.708a44.785,44.785,0,0,1,44.788-44.788h0a44.772,44.772,0,0,1,44.779,44.788V737.37a44.777,44.777,0,0,1-44.779,44.788h0a44.785,44.785,0,0,1-44.788-44.788Z" transform="translate(-1511.095 -617.316)" fill="#fff" stroke="#3a69ac" stroke-linecap="round" stroke-linejoin="round" stroke-width="3"/>
            <path id="Path_37071" data-name="Path 37071" d="M1770.93,755.685a40.42,40.42,0,0,1-40.423-40.431V699.312a40.341,40.341,0,0,1,3.152-15.671,40.393,40.393,0,0,0-20.3,35.053v15.942a40.428,40.428,0,0,0,77.693,15.68,40.211,40.211,0,0,1-20.132,5.369Z" transform="translate(-1511.946 -618.423)" fill="#a5c5e8"/>
            <path id="Path_37072" data-name="Path 37072" d="M1681.114,639.52h-89.567a50.336,50.336,0,0,0-20.683,4.435c-16.964,36.555-24.786,118.168,0,160.171a50.3,50.3,0,0,0,20.674,4.435h89.567a50.457,50.457,0,0,0,50.463-50.454V689.983a50.457,50.457,0,0,0-50.463-50.454Z" transform="translate(-1491.852 -612.822)" fill="#fff" stroke="#3a69ac" stroke-linecap="round" stroke-linejoin="round" stroke-width="3"/>
            <path id="Path_37073" data-name="Path 37073" d="M1714.036,778.251h-80.487a45.164,45.164,0,0,1-18.579-3.981c-18.5-31.343-16.78-87.21-6.941-124.07h-12.485a45.238,45.238,0,0,0-18.588,3.981c-15.244,32.853-22.271,106.19,0,143.941a45.227,45.227,0,0,0,18.579,3.981h80.487a45.325,45.325,0,0,0,39.96-23.9c-.646.026-1.3.052-1.956.052Z" transform="translate(-1492.829 -614.178)" fill="#a5c5e8"/>
          </g>
        </g>
      </g>
      <g id="Group_34969" data-name="Group 34969" transform="translate(173.233 53.264)">
        <g id="Group_34968" data-name="Group 34968" transform="translate(19.46)">
          <path id="Path_37074" data-name="Path 37074" d="M1673.439,592.875c1.973-11.76,2.759-38.03-1.065-50.925-10.477-35.359-25.973-13.5-25.973-.437,0,0,1.72,24.839.576,52.375A112.2,112.2,0,0,0,1673.439,592.875Z" transform="translate(-1630.161 -522.759)" fill="#a5c5e8" stroke="#3a69ac" stroke-linecap="round" stroke-linejoin="round" stroke-width="3"/>
          <path id="Path_37075" data-name="Path 37075" d="M1644.615,604.083c-.934,22.263-3.815,48.717-16.815,62.86l9.874,2.794s27.135-29.37,33.4-66.667A112.216,112.216,0,0,1,1644.615,604.083Z" transform="translate(-1627.8 -532.954)" fill="#fff" stroke="#3a69ac" stroke-linecap="round" stroke-linejoin="round" stroke-width="3"/>
        </g>
        <rect id="Rectangle_8271" data-name="Rectangle 8271" width="37.262" height="15.654" transform="translate(30.076 68.588)" fill="#a5c5e8" stroke="#3a69ac" stroke-linecap="round" stroke-linejoin="round" stroke-width="3"/>
        <path id="Path_37076" data-name="Path 37076" d="M1636.809,675.175,1626.1,671.01a6.585,6.585,0,0,0-1.624.48c-.8.367-.506,2.968-.506,2.968s-6.452,4.549-9.5,9.438-9.333,8.364-6.845,9.455,4.462-3.379,5.483-2.331c.515.524-.978,4.75-3.335,8.495s-5.588,7.02-3.684,7.412c3.807.794,11.018-11.367,11.018-11.367s-1.449,4.278-3.248,8.634c-1.929,4.68-4.156,9.481-1.929,10.363,1.929.759,3.649-3.562,5.919-7.639a80.442,80.442,0,0,1,5.011-7.726s-4.845,14.545-2.7,13.707,6.172-13.873,7.072-13.5-1.589,9.638-.017,9.438,6.408-15.881,6.408-15.881,4.112-8.678,2.383-14.187c0,0,2.628-2.086.786-3.6Z" transform="translate(-1605.511 -541.578)" fill="#204283"/>
      </g>
    </g>
    <g id="Group_34971" data-name="Group 34971" transform="translate(1511.885 475.343)">
      <path id="Path_37077" data-name="Path 37077" d="M1770.864,571.63a5.581,5.581,0,0,1-1.694,7.718l-12.712,8.137a5.579,5.579,0,0,1-7.718-1.694l-16.58-25.895a5.58,5.58,0,0,1,1.694-7.718l12.712-8.137a5.579,5.579,0,0,1,7.718,1.694Z" transform="translate(-1731.277 -543.157)" fill="#a5c5e8" stroke="#3a69ac" stroke-linecap="round" stroke-linejoin="round" stroke-width="3"/>
      <path id="Path_37078" data-name="Path 37078" d="M1739.61,570.448s16.021-.637,22.8-12.6" transform="translate(-1732.335 -545.022)" fill="#a5c5e8" stroke="#3a69ac" stroke-linecap="round" stroke-linejoin="round" stroke-width="3"/>
    </g>
    <g id="Group_34972" data-name="Group 34972" transform="translate(1418.148 386.076)">
      <path id="Path_37079" data-name="Path 37079" d="M1718.2,458.589a17.684,17.684,0,0,1-17.68,17.679H1641.59a17.684,17.684,0,0,1-17.68-17.679h0a17.684,17.684,0,0,1,17.68-17.679h58.931a17.684,17.684,0,0,1,17.68,17.679Z" transform="translate(-1623.91 -440.91)" fill="#204283"/>
      <rect id="Rectangle_8272" data-name="Rectangle 8272" width="20.953" height="17.61" transform="translate(0 17.679)" fill="#204283"/>
    </g>
    <path id="Path_37080" data-name="Path 37080" d="M951.338,425.28H865.622c-14.2,0-25.712,13.122-25.712,29.3s11.516,29.3,25.712,29.3h85.717a21.678,21.678,0,0,0,2.27-.122H977.05V454.58C977.05,438.393,965.534,425.28,951.338,425.28Z" transform="translate(-106.239 -52.85)" fill="#5786c5"/>
    <g id="Group_34973" data-name="Group 34973" transform="translate(1445.649 400.551)">
      <circle id="Ellipse_34" data-name="Ellipse 34" cx="2.619" cy="2.619" r="2.619" fill="#fff"/>
      <circle id="Ellipse_35" data-name="Ellipse 35" cx="2.619" cy="2.619" r="2.619" transform="translate(17.025)" fill="#fff"/>
      <circle id="Ellipse_36" data-name="Ellipse 36" cx="2.619" cy="2.619" r="2.619" transform="translate(34.049)" fill="#fff"/>
    </g>
    <path id="Path_37081" data-name="Path 37081" d="M890.073,462.192h-3.056l-1.275,7.788h-3.78l1.275-7.788H879.02v-3.475H883.8l.838-5.011h-4.2v-3.475h4.767l1.31-7.9h3.763l-1.292,7.9h3.056l1.31-7.9h3.781l-1.31,7.9h4.383v3.475H895.25l-.838,5.011h4.348v3.475h-4.915l-1.275,7.788h-3.78l1.275-7.788Zm-2.488-3.475h3.056l.838-5.011h-3.056Z" transform="translate(-111.204 -55.014)" fill="#fff"/>
    <path id="Path_37082" data-name="Path 37082" d="M920.073,462.192h-3.056l-1.275,7.788h-3.78l1.275-7.788H909.02v-3.475H913.8l.838-5.011h-4.2v-3.475h4.767l1.31-7.9h3.763l-1.292,7.9h3.056l1.31-7.9h3.78l-1.31,7.9h4.383v3.475H925.25l-.838,5.011h4.348v3.475h-4.915l-1.275,7.788h-3.78l1.275-7.788Zm-2.488-3.475h3.056l.838-5.011h-3.056Z" transform="translate(-115.013 -55.014)" fill="#fff"/>
    <path id="Path_37083" data-name="Path 37083" d="M950.073,462.192h-3.056l-1.275,7.788h-3.78l1.275-7.788H939.02v-3.475H943.8l.838-5.011h-4.2v-3.475h4.767l1.31-7.9h3.763l-1.292,7.9h3.055l1.31-7.9h3.781l-1.31,7.9h4.383v3.475H955.25l-.838,5.011h4.348v3.475h-4.915l-1.275,7.788h-3.781l1.275-7.788Zm-2.488-3.475h3.056l.838-5.011h-3.056Z" transform="translate(-118.821 -55.014)" fill="#fff"/>
  </g>
</svg>
